<svg width="15" height="16" viewBox="0 0 15 16" fill="none" xmlns="http://www.w3.org/2000/svg">
<path d="M1.79883 2.60352V13.3965H12.5918" stroke="#666B74" stroke-width="1.19922" stroke-linecap="round" stroke-linejoin="round"/>
<path d="M5.99609 6.80078H4.79687C4.46572 6.80078 4.19727 7.06924 4.19727 7.40039V10.3984C4.19727 10.7296 4.46572 10.998 4.79687 10.998H5.99609C6.32725 10.998 6.5957 10.7296 6.5957 10.3984V7.40039C6.5957 7.06924 6.32725 6.80078 5.99609 6.80078Z" stroke="#666B74" stroke-width="1.19922" stroke-linecap="round" stroke-linejoin="round"/>
<path d="M10.793 3.80273H9.59375C9.26259 3.80273 8.99414 4.07119 8.99414 4.40234V10.3984C8.99414 10.7296 9.26259 10.998 9.59375 10.998H10.793C11.1241 10.998 11.3926 10.7296 11.3926 10.3984V4.40234C11.3926 4.07119 11.1241 3.80273 10.793 3.80273Z" stroke="#666B74" stroke-width="1.19922" stroke-linecap="round" stroke-linejoin="round"/>
</svg>
