<svg width="24" height="24" viewBox="0 0 24 24" fill="none" xmlns="http://www.w3.org/2000/svg">
<rect width="24" height="24" rx="4" fill="#FBA624"/>
<path d="M16.0352 7.95117L16.1758 7.95898C16.3154 7.97365 16.4522 8.01024 16.5811 8.06738L20.3467 9.71777L21.5146 9.90137L21.6592 9.9375C21.7993 9.98612 21.9253 10.0711 22.0225 10.1855L22.1084 10.3076C22.1827 10.4358 22.2217 10.5824 22.2207 10.7324V12.8115L22.2119 12.9941C22.1752 13.3564 22.0319 13.7 21.8008 13.9814L21.6777 14.1172C21.3743 14.4199 20.9765 14.6065 20.5537 14.6484L20.3711 14.6572H19.2705V14.1377H20.3711C20.7237 14.1376 21.0622 13.9974 21.3115 13.748L21.3994 13.6504C21.5934 13.4138 21.7011 13.1162 21.7012 12.8076V10.7324L21.6953 10.6758C21.6887 10.6393 21.676 10.6042 21.6572 10.5723L21.624 10.5264C21.5748 10.4693 21.5071 10.4312 21.4326 10.4199H21.4316L20.1719 10.21L20.1592 10.208V10.207L16.3721 8.54492C16.2928 8.50898 16.2083 8.48599 16.1221 8.47656L16.0352 8.47168H12.6475C12.6301 8.47163 12.0746 8.4512 11.335 8.57422C10.5938 8.69751 9.67276 8.9645 8.9248 9.53711L8.92285 9.53809L8.90137 9.55273L8.89844 9.55469L7.10449 10.6279L7.09863 10.6318L7.0918 10.6338L3.68457 11.5156C3.36215 11.5971 3.0745 11.7767 2.85938 12.0273L2.77148 12.1387C2.5504 12.4477 2.44579 12.8253 2.47656 13.2041L2.52734 13.666C2.54852 13.8187 2.57382 13.9708 2.60352 14.1221L2.61035 14.1328L2.62305 14.1377H4.77441V14.6572H2.63672V14.6562C2.54231 14.6575 2.44981 14.6351 2.36816 14.5898L2.29004 14.5371C2.21649 14.4775 2.16071 14.3998 2.12695 14.3125L2.10059 14.2227C2.03596 13.9038 1.98804 13.5816 1.95703 13.2578V13.2568C1.91678 12.7566 2.05454 12.2574 2.3457 11.8486L2.46094 11.7012C2.74417 11.3696 3.12372 11.1313 3.54883 11.0215L6.9248 10.1387L8.62012 9.11621C10.2632 7.85792 12.5645 7.95117 12.6582 7.95117H16.0352Z" fill="white" stroke="white" stroke-width="0.1"/>
<path d="M16.1064 14.1377V14.6572H7.93066V14.1377H16.1064Z" fill="white" stroke="white" stroke-width="0.1"/>
<path d="M12.8769 8.13222L13.3924 8.1967L13.0771 10.7171L12.5616 10.6526L12.8769 8.13222Z" fill="white" stroke="white" stroke-width="0.1"/>
<path d="M18.2764 8.94629L18.5479 9.26758L18.5801 9.30566L18.541 9.33789L17.1426 10.5186C17.0201 10.6211 16.8675 10.6808 16.708 10.6895H16.707L8.82031 11.0557H8.81836L8.62109 11.0596H8.62012C8.40842 11.0596 8.07308 11.0461 7.7373 10.9785C7.40308 10.9112 7.05953 10.7888 6.84082 10.5635L6.80664 10.5273L6.8418 10.4932L7.14258 10.2012L7.17871 10.166L7.21289 10.2021C7.28722 10.2783 7.40078 10.34 7.53809 10.3887C7.67468 10.4371 7.83155 10.4717 7.99023 10.4951C8.30811 10.5421 8.62779 10.5444 8.79395 10.5352H8.79492L16.6826 10.1699L16.749 10.1553C16.77 10.1469 16.79 10.1348 16.8076 10.1201L18.2061 8.94043L18.2441 8.9082L18.2764 8.94629Z" fill="white" stroke="white" stroke-width="0.1"/>
<path d="M17.4521 12.251C17.7781 12.2109 18.1102 12.2556 18.415 12.3818L18.543 12.4414C18.8361 12.5892 19.0872 12.8107 19.2705 13.085L19.3447 13.2051C19.5062 13.4906 19.5917 13.8139 19.5918 14.1436L19.582 14.332C19.5379 14.7683 19.345 15.1785 19.0322 15.4912C18.7195 15.8039 18.3093 15.9969 17.873 16.041L17.6846 16.0508C17.3549 16.0507 17.0317 15.9652 16.7461 15.8037L16.626 15.7295C16.3517 15.5462 16.1302 15.2951 15.9824 15.002L15.9229 14.874C15.7785 14.5256 15.7409 14.1414 15.8145 13.7715L15.8477 13.6348C15.9354 13.3183 16.1036 13.0292 16.3369 12.7959L16.4404 12.6992C16.689 12.4851 16.9892 12.3378 17.3125 12.2734L17.4521 12.251ZM17.582 12.7607C17.378 12.7759 17.18 12.8367 17.002 12.9375L16.9141 12.9912C16.6862 13.1436 16.5082 13.3601 16.4033 13.6133C16.2985 13.8665 16.2718 14.1452 16.3252 14.4141L16.3486 14.5146C16.4124 14.7445 16.5347 14.9545 16.7041 15.124C16.898 15.3179 17.1452 15.4504 17.4141 15.5039L17.5156 15.5205C17.7527 15.5497 17.9941 15.5166 18.2158 15.4248L18.3086 15.3818C18.5219 15.2744 18.7046 15.1136 18.8379 14.9141L18.8916 14.8271C19.0093 14.6193 19.0713 14.3836 19.0713 14.1436L19.0645 14.0068C19.0325 13.6897 18.8924 13.3915 18.665 13.1641C18.4051 12.9041 18.0522 12.7574 17.6846 12.7568L17.582 12.7607Z" fill="white" stroke="white" stroke-width="0.1"/>
<path d="M17.4629 13.0283C17.6832 12.9845 17.9116 13.0069 18.1191 13.0928L18.2686 13.1689C18.4119 13.2549 18.5353 13.3716 18.6289 13.5117L18.7119 13.6572C18.7833 13.8083 18.8203 13.9741 18.8203 14.1426C18.8203 14.4438 18.7003 14.7323 18.4873 14.9453C18.2743 15.1583 17.9858 15.2783 17.6846 15.2783C17.5161 15.2783 17.3503 15.2413 17.1992 15.1699L17.0537 15.0869C16.9136 14.9933 16.7969 14.8699 16.7109 14.7266L16.6348 14.5771C16.5489 14.3696 16.5265 14.1412 16.5703 13.9209L16.6152 13.7598C16.6716 13.6023 16.7616 13.4581 16.8809 13.3389L17.0078 13.2295C17.1421 13.13 17.2976 13.0612 17.4629 13.0283ZM17.6846 13.5264C17.5933 13.5264 17.5037 13.5473 17.4219 13.5859L17.3428 13.6309C17.2667 13.6817 17.2029 13.7483 17.1562 13.8262L17.1152 13.9072C17.0688 14.0196 17.0564 14.1434 17.0801 14.2627C17.1038 14.3822 17.1629 14.492 17.249 14.5781C17.3351 14.6642 17.445 14.7223 17.5645 14.7461L17.6543 14.7578C17.7447 14.7623 17.8356 14.7468 17.9199 14.7119L18.001 14.6709C18.0788 14.6243 18.1455 14.5605 18.1963 14.4844L18.2412 14.4053C18.2798 14.3234 18.3008 14.2338 18.3008 14.1426C18.3008 14.0201 18.2642 13.9012 18.1973 13.8008L18.1201 13.707C18.0046 13.5915 17.8479 13.5264 17.6846 13.5264Z" fill="white" stroke="white" stroke-width="0.1"/>
<path d="M6.12988 13.0283C6.35015 12.9845 6.57863 13.0069 6.78613 13.0928L6.93555 13.1689C7.07889 13.2549 7.20227 13.3716 7.2959 13.5117C7.42067 13.6985 7.4873 13.918 7.4873 14.1426C7.4873 14.4438 7.36732 14.7323 7.1543 14.9453C6.94127 15.1583 6.65282 15.2783 6.35156 15.2783C6.18308 15.2783 6.0173 15.2413 5.86621 15.1699L5.7207 15.0869C5.58058 14.9933 5.46391 14.8699 5.37793 14.7266L5.30176 14.5771C5.21586 14.3696 5.19349 14.1412 5.2373 13.9209L5.28223 13.7598C5.33858 13.6023 5.42864 13.4581 5.54785 13.3389L5.6748 13.2295C5.80909 13.13 5.9646 13.0612 6.12988 13.0283ZM6.35156 13.5264C6.26031 13.5264 6.17072 13.5473 6.08887 13.5859L6.00977 13.6309C5.90849 13.6985 5.82884 13.7947 5.78223 13.9072C5.73577 14.0196 5.72337 14.1434 5.74707 14.2627C5.77083 14.3822 5.82989 14.492 5.91602 14.5781C6.00213 14.6642 6.11201 14.7223 6.23145 14.7461C6.35076 14.7698 6.47449 14.7584 6.58691 14.7119L6.66797 14.6709C6.74583 14.6243 6.81244 14.5605 6.86328 14.4844L6.9082 14.4053C6.94683 14.3234 6.96777 14.2338 6.96777 14.1426C6.96777 14.0201 6.9312 13.9012 6.86426 13.8008L6.78711 13.707C6.67162 13.5915 6.51489 13.5264 6.35156 13.5264Z" fill="white" stroke="white" stroke-width="0.1"/>
<path d="M6.12012 12.251C6.44604 12.2109 6.77815 12.2556 7.08301 12.3818L7.21094 12.4414C7.5041 12.5892 7.75521 12.8107 7.93848 13.085C8.14778 13.3984 8.2597 13.7667 8.25977 14.1436L8.25 14.332C8.21255 14.7061 8.06541 15.0608 7.82715 15.3516L7.7002 15.4912C7.38735 15.8041 6.97744 15.9973 6.54102 16.041L6.35254 16.0508C6.02287 16.0507 5.69962 15.9652 5.41406 15.8037L5.29395 15.7295C5.01966 15.5462 4.79814 15.2951 4.65039 15.002L4.59082 14.874C4.4465 14.5256 4.40885 14.1414 4.48242 13.7715C4.55604 13.4017 4.7383 13.0625 5.00488 12.7959L5.1084 12.6992C5.35695 12.4851 5.65716 12.3378 5.98047 12.2734L6.12012 12.251ZM6.35254 12.7568C6.11265 12.7569 5.87768 12.8199 5.66992 12.9375L5.58203 12.9912C5.38279 13.1245 5.22163 13.3065 5.11426 13.5195L5.07129 13.6133C4.96644 13.8665 4.93975 14.1452 4.99316 14.4141L5.0166 14.5146C5.08037 14.7445 5.20266 14.9545 5.37207 15.124L5.44727 15.1943C5.62809 15.3502 5.84675 15.457 6.08203 15.5039L6.18359 15.5205C6.42062 15.5497 6.66208 15.5166 6.88379 15.4248L6.97656 15.3818C7.18984 15.2744 7.37254 15.1136 7.50586 14.9141C7.65816 14.6861 7.73926 14.4178 7.73926 14.1436C7.73918 13.8218 7.62796 13.5113 7.42578 13.2646L7.33301 13.1631C7.07298 12.9032 6.72015 12.7568 6.35254 12.7568Z" fill="white" stroke="white" stroke-width="0.1"/>
<path d="M10.9561 11.8643C11.025 11.8643 11.0919 11.8917 11.1406 11.9404L11.1729 11.9795C11.2012 12.0219 11.2168 12.0723 11.2168 12.124C11.2168 12.1758 11.2011 12.2261 11.1729 12.2686L11.1406 12.3076C11.0919 12.3564 11.025 12.3838 10.9561 12.3838H10.1602C10.1084 12.3838 10.058 12.3691 10.0156 12.3408L9.97656 12.3076C9.92785 12.2589 9.90039 12.193 9.90039 12.124C9.90041 12.0551 9.92781 11.9892 9.97656 11.9404L10.0156 11.9082C10.0581 11.8797 10.1083 11.8643 10.1602 11.8643H10.9561Z" fill="white" stroke="white" stroke-width="0.1"/>
<path d="M14.4287 11.8643L14.4805 11.8691C14.5303 11.8792 14.5768 11.9039 14.6133 11.9404L14.6455 11.9795C14.6739 12.0219 14.6894 12.0722 14.6895 12.124C14.6895 12.1758 14.6738 12.2261 14.6455 12.2686L14.6133 12.3076C14.5645 12.3564 14.4977 12.3838 14.4287 12.3838H13.6309C13.5791 12.3838 13.5287 12.3691 13.4863 12.3408L13.4473 12.3076C13.3985 12.2589 13.3711 12.193 13.3711 12.124C13.3711 12.0551 13.3985 11.9892 13.4473 11.9404L13.4863 11.9082C13.5288 11.8797 13.579 11.8643 13.6309 11.8643H14.4287Z" fill="white" stroke="white" stroke-width="0.1"/>
<path d="M3.43262 11.4229L3.4873 12.4473L3.4834 12.582C3.46744 12.7156 3.41488 12.8435 3.33008 12.9502C3.21712 13.0922 3.05503 13.1865 2.87598 13.2158L2.87695 13.2168L2.26172 13.3213L2.21191 13.3301L2.20312 13.2803L2.13379 12.8604L2.12598 12.8115L2.1748 12.8027L2.79102 12.6973L2.86426 12.6719C2.88653 12.6589 2.9064 12.6415 2.92285 12.6211L2.95996 12.5537L2.96973 12.4766L2.91309 11.4512L2.91016 11.4014L2.95996 11.3994L3.37988 11.376L3.43066 11.373L3.43262 11.4229Z" fill="white" stroke="white" stroke-width="0.1"/>
<path d="M22.2207 10.7783V12.8486H21.249C21.1475 12.8486 21.049 12.8182 20.9658 12.7627L20.8887 12.6992C20.793 12.6036 20.7393 12.4732 20.7393 12.3379V11.2881C20.7393 11.1528 20.793 11.0234 20.8887 10.9277L20.9658 10.8643C21.0491 10.8086 21.1474 10.7783 21.249 10.7783H22.2207ZM21.2588 12.3281H21.7012V11.2979H21.2588V12.3281Z" fill="white" stroke="white" stroke-width="0.1"/>
</svg>
