<svg width="24" height="24" viewBox="0 0 24 24" fill="none" xmlns="http://www.w3.org/2000/svg">
    <path fill-rule="evenodd" clip-rule="evenodd" d="M15.8744 14.3611H7.72484C7.6045 14.3611 7.50628 14.2638 7.50628 14.1426C7.50628 14.0222 7.6045 13.924 7.72484 13.924H15.8744C15.9948 13.924 16.093 14.0222 16.093 14.1426C16.093 14.2629 15.9948 14.3611 15.8744 14.3611ZM20.2792 14.3611H19.2209C19.1005 14.3611 19.0023 14.2638 19.0023 14.1426C19.0023 14.0222 19.1005 13.924 19.2209 13.924H20.2358L21.2791 13.4904C21.6976 12.3968 21.656 11.4137 21.1525 10.489L18.9714 10.2713C18.9139 10.2651 18.8608 10.2368 18.8236 10.1917C18.8094 10.174 17.3317 8.40254 15.071 8.40254H15.0117L11.2963 8.45386C10.0655 8.47067 8.58869 9.61037 7.81806 10.2882C7.68622 10.4041 7.53756 10.4713 7.36502 10.4952C6.58811 10.6023 3.96355 10.9916 2.82663 11.4942C2.58419 11.6013 2.43908 11.8243 2.43908 12.0906V13.6754C2.43908 13.7807 2.46651 13.8249 2.49394 13.855C2.5373 13.9019 2.58685 13.924 2.65056 13.924H4.38133C4.50167 13.924 4.59989 14.0223 4.59989 14.1426C4.59989 14.2629 4.50167 14.3612 4.38133 14.3612H2.65056C2.46385 14.3612 2.29927 14.2886 2.17273 14.1523C2.05858 14.0276 2.00195 13.8718 2.00195 13.6772V12.0924C2.00195 11.6553 2.25061 11.2739 2.64967 11.0969C3.83892 10.5713 6.51392 10.174 7.30494 10.0643C7.39342 10.0519 7.46244 10.0201 7.52969 9.96166C8.34554 9.24404 9.91974 8.0371 11.2904 8.01853L15.0068 7.9672C17.2747 7.938 18.7852 9.48738 19.1027 9.84664L21.3096 10.067C21.3795 10.074 21.4414 10.1139 21.4768 10.174C22.1086 11.2589 22.1679 12.4578 21.652 13.7381C21.6299 13.7921 21.5874 13.8355 21.5334 13.8585L20.3645 14.3443C20.338 14.3549 20.3097 14.3611 20.2805 14.3611L20.2792 14.3611Z" fill="#D95F06"/>
    <path fill-rule="evenodd" clip-rule="evenodd" d="M8.80863 10.8731H17.9758C17.2971 10.0679 16.0795 9.49006 15.0629 9.49006H15.0266L11.3112 9.54138C10.6414 9.55023 9.62538 10.1988 8.80863 10.8731ZM18.4358 11.3093H8.19543C8.09898 11.3093 8.01403 11.2465 7.9866 11.1536C7.95917 11.0616 7.99545 10.9616 8.07597 10.9085C8.13526 10.8696 8.19366 10.8253 8.24763 10.7767C8.81394 10.2785 10.2456 9.11845 11.3057 9.10429L15.022 9.05297C16.1883 9.03881 17.5448 9.67502 18.3216 10.6032L18.6056 10.9519C18.6587 11.0174 18.6693 11.1076 18.6339 11.1837C18.5976 11.2598 18.5206 11.3085 18.4366 11.3085L18.4358 11.3093Z" fill="#D95F06"/>
    <path fill-rule="evenodd" clip-rule="evenodd" d="M6.05208 12.6883C5.25039 12.6883 4.59737 13.3413 4.59737 14.143C4.59737 14.9456 5.25039 15.5977 6.05208 15.5977C6.85465 15.5977 7.50678 14.9447 7.50678 14.143C7.50678 13.3404 6.85376 12.6883 6.05208 12.6883ZM6.05208 16.0347C5.00883 16.0347 4.16113 15.1861 4.16113 14.1429C4.16113 13.0996 5.00971 12.252 6.05208 12.252C7.09533 12.252 7.9439 13.1005 7.9439 14.1429C7.9439 15.1861 7.09533 16.0347 6.05208 16.0347Z" fill="#D95F06"/>
    <path fill-rule="evenodd" clip-rule="evenodd" d="M17.5482 12.6883C16.7465 12.6883 16.0935 13.3413 16.0935 14.143C16.0935 14.9456 16.7465 15.5977 17.5482 15.5977C18.3507 15.5977 19.0029 14.9447 19.0029 14.143C19.0029 13.3404 18.3499 12.6883 17.5482 12.6883ZM17.5482 16.0347C16.5049 16.0347 15.6572 15.1861 15.6572 14.1429C15.6572 13.0996 16.5058 12.252 17.5482 12.252C18.5914 12.252 19.44 13.1005 19.44 14.1429C19.44 15.1861 18.5914 16.0347 17.5482 16.0347Z" fill="#D95F06"/>
    <path fill-rule="evenodd" clip-rule="evenodd" d="M17.548 13.5816C17.2383 13.5816 16.987 13.8329 16.987 14.1426C16.987 14.4523 17.2383 14.7036 17.548 14.7036C17.8577 14.7036 18.109 14.4523 18.109 14.1426C18.109 13.8329 17.8577 13.5816 17.548 13.5816ZM17.548 15.1407C16.9985 15.1407 16.5508 14.693 16.5508 14.1426C16.5508 13.5923 16.9985 13.1445 17.548 13.1445C18.0984 13.1445 18.5461 13.5923 18.5461 14.1426C18.5461 14.693 18.0984 15.1407 17.548 15.1407Z" fill="#D95F06"/>
    <path fill-rule="evenodd" clip-rule="evenodd" d="M4.77377 15.4405H3.18811C2.77045 15.4405 2.43066 15.1007 2.43066 14.6821V14.1424C2.43066 14.022 2.528 13.9238 2.64922 13.9238C2.76956 13.9238 2.86778 14.0212 2.86778 14.1424V14.6821C2.86778 14.8591 3.01201 15.0034 3.18899 15.0034H4.77465C4.89499 15.0034 4.99321 15.1007 4.99321 15.2219C4.99321 15.3423 4.89499 15.4405 4.77465 15.4405L4.77377 15.4405ZM16.2698 15.4405H7.33098C7.21064 15.4405 7.11243 15.3431 7.11243 15.2219C7.11243 15.1016 7.21064 15.0034 7.33098 15.0034H16.2698C16.3901 15.0034 16.4884 15.1007 16.4884 15.2219C16.4884 15.3423 16.3901 15.4405 16.2698 15.4405ZM19.7392 15.4405H18.8261C18.7057 15.4405 18.6075 15.3431 18.6075 15.2219C18.6075 15.1016 18.7057 15.0034 18.8261 15.0034H19.7392C19.9162 15.0034 20.0604 14.8591 20.0604 14.6821V14.1424C20.0604 14.0221 20.1578 13.9238 20.279 13.9238C20.3993 13.9238 20.4975 14.0212 20.4975 14.1424V14.6821C20.4975 15.0998 20.1569 15.4405 19.7392 15.4405Z" fill="#D95F06"/>
    <path fill-rule="evenodd" clip-rule="evenodd" d="M3.2264 12.659H2.21856C2.09733 12.659 2 12.5617 2 12.4405C2 12.3201 2.09733 12.2219 2.21856 12.2219H3.2264C3.34409 12.2219 3.43965 12.1263 3.43965 12.0086V10.9822C3.43965 10.8619 3.53699 10.7637 3.65821 10.7637C3.77855 10.7637 3.87677 10.861 3.87677 10.9822V12.0086C3.87677 12.367 3.58564 12.6581 3.2264 12.6581L3.2264 12.659Z" fill="#D95F06"/>
    <path fill-rule="evenodd" clip-rule="evenodd" d="M2.21856 12.66C2.09733 12.66 2 12.5626 2 12.4414V12.0919C2 11.6548 2.24865 11.2734 2.64772 11.0964C2.89105 10.9894 3.21049 10.8805 3.59893 10.7735C3.71485 10.7416 3.8352 10.8097 3.86705 10.9257C3.89978 11.0416 3.83077 11.1619 3.71485 11.1938C3.34675 11.2955 3.04679 11.3973 2.8238 11.4955C2.58135 11.6026 2.43624 11.8255 2.43624 12.0919V12.4414C2.43624 12.5618 2.33803 12.66 2.21769 12.66L2.21856 12.66Z" fill="#D95F06"/>
    <path fill-rule="evenodd" clip-rule="evenodd" d="M13.1658 11.3108C13.0446 11.3108 12.9473 11.2135 12.9473 11.0922V9.29864C12.9473 9.1783 13.0446 9.08008 13.1658 9.08008C13.2862 9.08008 13.3844 9.17741 13.3844 9.29864V11.0922C13.3844 11.2126 13.2862 11.3108 13.1658 11.3108Z" fill="#D95F06"/>
    <path fill-rule="evenodd" clip-rule="evenodd" d="M6.05191 13.5816C5.74221 13.5816 5.4909 13.8329 5.4909 14.1426C5.4909 14.4523 5.74221 14.7036 6.05191 14.7036C6.36161 14.7036 6.61291 14.4523 6.61291 14.1426C6.61291 13.8329 6.36161 13.5816 6.05191 13.5816ZM6.05191 15.1407C5.50153 15.1407 5.05469 14.693 5.05469 14.1426C5.05469 13.5923 5.50243 13.1445 6.05191 13.1445C6.60229 13.1445 7.05001 13.5923 7.05001 14.1426C7.05001 14.693 6.60227 15.1407 6.05191 15.1407Z" fill="#D95F06"/>
</svg>
