<svg width="24" height="24" viewBox="0 0 24 24" fill="none" xmlns="http://www.w3.org/2000/svg">
<path fill-rule="evenodd" clip-rule="evenodd" d="M15.8749 14.3606H7.72532C7.60498 14.3606 7.50677 14.2633 7.50677 14.1421C7.50677 14.0217 7.60498 13.9235 7.72532 13.9235H15.8749C15.9953 13.9235 16.0935 14.0217 16.0935 14.1421C16.0935 14.2624 15.9953 14.3606 15.8749 14.3606ZM20.2797 14.3606H19.2214C19.101 14.3606 19.0028 14.2633 19.0028 14.1421C19.0028 14.0217 19.101 13.9235 19.2214 13.9235H20.2363L21.2796 13.4899C21.6981 12.3962 21.6565 11.4132 21.153 10.4885L18.9719 10.2708C18.9143 10.2646 18.8613 10.2363 18.8241 10.1912C18.8099 10.1735 17.3322 8.40202 15.0715 8.40202H15.0122L11.2968 8.45334C10.066 8.47015 8.58918 9.60985 7.81855 10.2877C7.68671 10.4036 7.53805 10.4708 7.3655 10.4947C6.5886 10.6018 3.96404 10.9911 2.82712 11.4937C2.58467 11.6008 2.43956 11.8238 2.43956 12.0901V13.6749C2.43956 13.7802 2.46699 13.8244 2.49443 13.8545C2.53778 13.9014 2.58734 13.9235 2.65105 13.9235H4.38182C4.50216 13.9235 4.60037 14.0217 4.60037 14.1421C4.60037 14.2624 4.50216 14.3606 4.38182 14.3606H2.65105C2.46434 14.3606 2.29975 14.2881 2.17322 14.1518C2.05907 14.0271 2.00244 13.8713 2.00244 13.6766V12.0919C2.00244 11.6547 2.2511 11.2734 2.65016 11.0964C3.8394 10.5708 6.51441 10.1735 7.30543 10.0638C7.39391 10.0514 7.46293 10.0195 7.53018 9.96114C8.34603 9.24352 9.92022 8.03658 11.2909 8.01801L15.0072 7.96669C17.2752 7.93748 18.7856 9.48686 19.1032 9.84612L21.3101 10.0665C21.38 10.0735 21.4419 10.1133 21.4773 10.1735C22.1091 11.2584 22.1684 12.4573 21.6525 13.7376C21.6304 13.7916 21.5879 13.835 21.5339 13.858L20.365 14.3437C20.3385 14.3544 20.3102 14.3606 20.281 14.3606L20.2797 14.3606Z" fill="currentColor"/>
<path fill-rule="evenodd" clip-rule="evenodd" d="M8.80814 10.8733H17.9753C17.2966 10.0681 16.079 9.49027 15.0624 9.49027H15.0261L11.3107 9.54159C10.6409 9.55044 9.62489 10.199 8.80814 10.8733ZM18.4354 11.3095H8.19494C8.09849 11.3095 8.01354 11.2467 7.98611 11.1538C7.95868 11.0618 7.99496 10.9618 8.07548 10.9087C8.13477 10.8698 8.19317 10.8255 8.24714 10.7769C8.81345 10.2787 10.2451 9.11866 11.3052 9.1045L15.0215 9.05318C16.1878 9.03902 17.5443 9.67523 18.3211 10.6035L18.6051 10.9521C18.6582 11.0176 18.6688 11.1078 18.6334 11.1839C18.5971 11.26 18.5202 11.3087 18.4361 11.3087L18.4354 11.3095Z" fill="currentColor"/>
<path fill-rule="evenodd" clip-rule="evenodd" d="M6.05159 12.6873C5.2499 12.6873 4.59688 13.3403 4.59688 14.142C4.59688 14.9446 5.2499 15.5967 6.05159 15.5967C6.85416 15.5967 7.50629 14.9437 7.50629 14.142C7.50629 13.3394 6.85327 12.6873 6.05159 12.6873ZM6.05159 16.0337C5.00834 16.0337 4.16064 15.1851 4.16064 14.1419C4.16064 13.0986 5.00922 12.2509 6.05159 12.2509C7.09484 12.2509 7.94341 13.0995 7.94341 14.1419C7.94341 15.1851 7.09484 16.0337 6.05159 16.0337Z" fill="currentColor"/>
<path fill-rule="evenodd" clip-rule="evenodd" d="M17.5477 12.6873C16.746 12.6873 16.093 13.3403 16.093 14.142C16.093 14.9446 16.746 15.5967 17.5477 15.5967C18.3503 15.5967 19.0024 14.9437 19.0024 14.142C19.0024 13.3394 18.3494 12.6873 17.5477 12.6873ZM17.5477 16.0337C16.5044 16.0337 15.6567 15.1851 15.6567 14.1419C15.6567 13.0986 16.5053 12.2509 17.5477 12.2509C18.5909 12.2509 19.4395 13.0995 19.4395 14.1419C19.4395 15.1851 18.5909 16.0337 17.5477 16.0337Z" fill="currentColor"/>
<path fill-rule="evenodd" clip-rule="evenodd" d="M17.548 13.5809C17.2383 13.5809 16.987 13.8322 16.987 14.1419C16.987 14.4516 17.2383 14.7029 17.548 14.7029C17.8577 14.7029 18.109 14.4516 18.109 14.1419C18.109 13.8322 17.8577 13.5809 17.548 13.5809ZM17.548 15.14C16.9985 15.14 16.5508 14.6923 16.5508 14.1419C16.5508 13.5916 16.9985 13.1438 17.548 13.1438C18.0984 13.1438 18.5461 13.5916 18.5461 14.1419C18.5461 14.6923 18.0984 15.14 17.548 15.14Z" fill="currentColor"/>
<path fill-rule="evenodd" clip-rule="evenodd" d="M4.77426 15.4402H3.1886C2.77094 15.4402 2.43115 15.1004 2.43115 14.6819V14.1421C2.43115 14.0218 2.52849 13.9236 2.64971 13.9236C2.77005 13.9236 2.86827 14.0209 2.86827 14.1421V14.6819C2.86827 14.8589 3.0125 15.0031 3.18948 15.0031H4.77514C4.89548 15.0031 4.9937 15.1004 4.9937 15.2217C4.9937 15.342 4.89548 15.4402 4.77514 15.4402L4.77426 15.4402ZM16.2703 15.4402H7.33147C7.21113 15.4402 7.11291 15.3429 7.11291 15.2217C7.11291 15.1013 7.21113 15.0031 7.33147 15.0031H16.2703C16.3906 15.0031 16.4888 15.1004 16.4888 15.2217C16.4888 15.342 16.3906 15.4402 16.2703 15.4402ZM19.7397 15.4402H18.8265C18.7062 15.4402 18.608 15.3429 18.608 15.2217C18.608 15.1013 18.7062 15.0031 18.8265 15.0031H19.7397C19.9167 15.0031 20.0609 14.8589 20.0609 14.6819V14.1421C20.0609 14.0218 20.1582 13.9236 20.2795 13.9236C20.3998 13.9236 20.498 14.0209 20.498 14.1421V14.6819C20.498 15.0996 20.1574 15.4402 19.7397 15.4402Z" fill="currentColor"/>
<path fill-rule="evenodd" clip-rule="evenodd" d="M3.2264 12.659H2.21856C2.09733 12.659 2 12.5616 2 12.4404C2 12.3201 2.09733 12.2219 2.21856 12.2219H3.2264C3.34409 12.2219 3.43965 12.1263 3.43965 12.0086V10.9822C3.43965 10.8619 3.53699 10.7636 3.65821 10.7636C3.77855 10.7636 3.87677 10.861 3.87677 10.9822V12.0086C3.87677 12.367 3.58564 12.6581 3.2264 12.6581L3.2264 12.659Z" fill="black"/>
<path fill-rule="evenodd" clip-rule="evenodd" d="M2.21856 12.659C2.09733 12.659 2 12.5616 2 12.4404V12.0909C2 11.6538 2.24865 11.2724 2.64772 11.0954C2.89105 10.9884 3.21049 10.8795 3.59893 10.7725C3.71485 10.7406 3.8352 10.8087 3.86705 10.9247C3.89978 11.0406 3.83077 11.1609 3.71485 11.1928C3.34675 11.2945 3.04679 11.3963 2.8238 11.4945C2.58135 11.6016 2.43624 11.8246 2.43624 12.0909V12.4404C2.43624 12.5608 2.33803 12.659 2.21769 12.659L2.21856 12.659Z" fill="currentColor"/>
<path fill-rule="evenodd" clip-rule="evenodd" d="M13.1658 11.3096C13.0446 11.3096 12.9473 11.2123 12.9473 11.091V9.29743C12.9473 9.17709 13.0446 9.07887 13.1658 9.07887C13.2862 9.07887 13.3844 9.1762 13.3844 9.29743V11.091C13.3844 11.2114 13.2862 11.3096 13.1658 11.3096Z" fill="black"/>
<path fill-rule="evenodd" clip-rule="evenodd" d="M6.05191 13.5809C5.74221 13.5809 5.4909 13.8322 5.4909 14.1419C5.4909 14.4516 5.74221 14.7029 6.05191 14.7029C6.36161 14.7029 6.61291 14.4516 6.61291 14.1419C6.61291 13.8322 6.36161 13.5809 6.05191 13.5809ZM6.05191 15.14C5.50153 15.14 5.05469 14.6923 5.05469 14.1419C5.05469 13.5916 5.50243 13.1438 6.05191 13.1438C6.60229 13.1438 7.05001 13.5916 7.05001 14.1419C7.05001 14.6923 6.60227 15.14 6.05191 15.14Z" fill="currentColor"/>
</svg>
