<svg width="24" height="24" viewBox="0 0 24 24" fill="none" xmlns="http://www.w3.org/2000/svg">
    <path d="M7.84615 8.66667H16.1538M7.84615 11.3333H12M3 12.6756C3 14.0978 4.03662 15.3369 5.49877 15.544C6.54092 15.6916 7.59415 15.8044 8.65846 15.8809C8.98154 15.904 9.27692 16.0676 9.45692 16.3262L12 20L14.5431 16.3262C14.6323 16.1985 14.7506 16.092 14.8889 16.0148C15.0273 15.9376 15.1821 15.8918 15.3415 15.8809C16.3986 15.8049 17.4525 15.6925 18.5012 15.544C19.9634 15.3369 21 14.0987 21 12.6747V7.32534C21 5.90134 19.9634 4.66311 18.5012 4.456C16.3486 4.15175 14.1757 3.99934 12 4C9.792 4 7.62092 4.15556 5.49877 4.456C4.03662 4.66311 3 5.90222 3 7.32534V12.6747V12.6756Z" stroke="white" stroke-linecap="round" stroke-linejoin="round"/>
</svg>
