<svg width="104" height="105" viewBox="0 0 104 105" fill="none" xmlns="http://www.w3.org/2000/svg">
<rect y="0.5" width="104" height="104" rx="52" fill="#3455DB"/>
<path d="M78.5499 27.3002H64.85C64.25 27.3002 63.85 27.7002 63.85 28.3002C63.85 28.9002 64.25 29.3002 64.85 29.3002H78.45C79.85 29.3002 80.95 30.2002 80.95 31.4002V70.2002H22.95V31.3002C22.95 30.2002 24.05 29.2002 25.45 29.2002H40.95C41.55 29.2002 41.95 28.8002 41.95 28.2002C41.95 27.6002 41.55 27.2002 40.95 27.2002H25.35C22.95 27.3002 20.95 29.1002 20.95 31.3002V73.9002C20.95 76.1002 22.95 78.0002 25.45 78.0002H43.95L43.15 82.5002H41.45C40.85 82.5002 40.45 82.9002 40.45 83.5002C40.45 84.1002 40.85 84.5002 41.45 84.5002H62.25C62.8499 84.5002 63.25 84.1002 63.25 83.5002C63.25 82.9002 62.8499 82.5002 62.25 82.5002H60.5499L59.95 78.1002H78.5499C81.0499 78.1002 83.0499 76.3002 83.0499 74.0002V31.3002C82.95 29.1002 80.95 27.3002 78.5499 27.3002ZM58.65 82.5002H45.25L46.05 78.1002H57.95L58.65 82.5002ZM78.5499 76.1002H25.35C23.95 76.1002 22.85 75.2002 22.85 74.0002V72.2002H80.95V74.0002C80.95 75.1002 79.8499 76.1002 78.5499 76.1002Z" fill="white"/>
<path d="M29.75 53.2999V59.5999C29.75 61.7999 31.55 63.4999 33.65 63.4999H70.25C72.45 63.4999 74.15 61.6999 74.15 59.5999V53.2999C74.15 51.0999 72.35 49.3999 70.25 49.3999H33.65C31.45 49.3999 29.75 51.0999 29.75 53.2999ZM72.15 53.2999V59.5999C72.15 60.6999 71.25 61.4999 70.25 61.4999H33.65C32.55 61.4999 31.75 60.5999 31.75 59.5999V53.2999C31.75 52.1999 32.65 51.3999 33.65 51.3999H70.25C71.35 51.3999 72.15 52.1999 72.15 53.2999Z" fill="white"/>
<path d="M36.8499 58.5999C37.2499 58.9999 37.8499 58.9999 38.2499 58.5999L39.0499 57.7999L39.8499 58.5999C40.2499 58.9999 40.8499 58.9999 41.2499 58.5999C41.6499 58.1999 41.6499 57.5999 41.2499 57.1999L40.4499 56.3999L41.2499 55.5999C41.6499 55.1999 41.6499 54.5999 41.2499 54.1999C40.8499 53.7999 40.2499 53.7999 39.8499 54.1999L39.0499 54.9999L38.2499 54.1999C37.8499 53.7999 37.2499 53.7999 36.8499 54.1999C36.4499 54.5999 36.4499 55.1999 36.8499 55.5999L37.6499 56.3999L36.8499 57.1999C36.4499 57.5999 36.4499 58.1999 36.8499 58.5999Z" fill="white"/>
<path d="M45.4499 58.5999C45.8499 58.9999 46.4499 58.9999 46.8499 58.5999L47.6499 57.7999L48.4499 58.5999C48.8499 58.9999 49.4499 58.9999 49.8499 58.5999C50.2499 58.1999 50.2499 57.5999 49.8499 57.1999L49.0499 56.3999L49.8499 55.5999C50.2499 55.1999 50.2499 54.5999 49.8499 54.1999C49.4499 53.7999 48.8499 53.7999 48.4499 54.1999L47.6499 54.9999L46.8499 54.1999C46.4499 53.7999 45.8499 53.7999 45.4499 54.1999C45.0499 54.5999 45.0499 55.1999 45.4499 55.5999L46.2499 56.3999L45.4499 57.1999C45.0499 57.5999 45.0499 58.1999 45.4499 58.5999Z" fill="white"/>
<path d="M54.05 58.5999C54.45 58.9999 55.05 58.9999 55.45 58.5999L56.25 57.7999L57.05 58.5999C57.45 58.9999 58.05 58.9999 58.45 58.5999C58.85 58.1999 58.85 57.5999 58.45 57.1999L57.65 56.3999L58.45 55.5999C58.85 55.1999 58.85 54.5999 58.45 54.1999C58.05 53.7999 57.45 53.7999 57.05 54.1999L56.25 54.9999L55.45 54.1999C55.05 53.7999 54.45 53.7999 54.05 54.1999C53.65 54.5999 53.65 55.1999 54.05 55.5999L54.85 56.3999L54.05 57.1999C53.65 57.5999 53.65 58.1999 54.05 58.5999Z" fill="white"/>
<path d="M62.65 58.5999C63.05 58.9999 63.65 58.9999 64.05 58.5999L64.85 57.7999L65.65 58.5999C66.05 58.9999 66.65 58.9999 67.05 58.5999C67.45 58.1999 67.45 57.5999 67.05 57.1999L66.25 56.3999L67.05 55.5999C67.45 55.1999 67.45 54.5999 67.05 54.1999C66.65 53.7999 66.05 53.7999 65.65 54.1999L64.85 54.9999L64.05 54.1999C63.65 53.7999 63.05 53.7999 62.65 54.1999C62.25 54.5999 62.25 55.1999 62.65 55.5999L63.45 56.3999L62.65 57.1999C62.25 57.5999 62.25 58.1999 62.65 58.5999Z" fill="white"/>
<path d="M47.35 44.5H58.45C60.05 44.5 61.35 43.2 61.35 41.6V33.6C61.35 32 60.05 30.7 58.45 30.7H48.95V26.5C48.95 24.3 50.75 22.5 52.95 22.5C55.15 22.5 56.95 24.3 56.95 26.5C56.95 27.1 57.35 27.5 57.95 27.5C58.55 27.5 58.95 27.1 58.95 26.5C58.95 23.2 56.25 20.5 52.95 20.5C49.65 20.5 46.95 23.2 46.95 26.5V30.7C45.55 30.9 44.45 32.1 44.45 33.6V41.6C44.45 43.2 45.75 44.5 47.35 44.5ZM46.45 33.5C46.45 33 46.85 32.6 47.35 32.6H58.45C58.95 32.6 59.35 33 59.35 33.5V41.5C59.35 42 58.95 42.4 58.45 42.4H47.35C46.85 42.4 46.45 42 46.45 41.5V33.5Z" fill="white"/>
<path d="M52.95 39.1C53.55 39.1 53.95 38.7 53.95 38.1V37C53.95 36.4 53.55 36 52.95 36C52.35 36 51.95 36.4 51.95 37V38.1C51.95 38.7 52.35 39.1 52.95 39.1Z" fill="white"/>
</svg>
