<svg width="104" height="105" viewBox="0 0 104 105" fill="none" xmlns="http://www.w3.org/2000/svg">
<rect y="0.5" width="104" height="104" rx="52" fill="#01B802"/>
<path d="M77.1917 28.7154C76.4331 27.8483 75.0783 27.7399 74.2112 28.5528C70.8513 31.4791 67.7624 34.568 64.6735 37.7653C61.6388 40.9626 58.6582 44.2141 55.7861 47.574C51.5592 52.6138 47.4948 57.8704 43.7014 63.2895L29.9367 48.4953C29.2864 47.7908 28.2026 47.574 27.3355 48.1159C26.3059 48.712 25.9808 50.0126 26.5769 51.0423C26.5769 51.0423 39.6912 73.6401 40.2331 74.6156C40.775 75.5368 41.9673 77 44.4059 77C46.7903 77 48.0909 75.591 48.8496 74.1278C49.6625 72.6105 56.9241 59.171 61.6388 52.0719C63.969 48.4953 66.516 45.027 69.063 41.6129C71.6642 38.1989 74.3738 34.839 77.1376 31.6959L77.1917 31.6417C77.8962 30.7204 77.8962 29.5282 77.1917 28.7154Z" fill="white"/>
</svg>
