<svg width="46" height="73" viewBox="0 0 46 73" fill="none" xmlns="http://www.w3.org/2000/svg">
<path d="M42.916 37.9058C43.3084 36.8442 43.5161 35.7249 43.5161 34.5941C43.5161 32.321 42.7083 30.1286 41.2429 28.4439C41.1391 28.317 41.0352 28.1901 40.9891 28.1439C40.4929 27.5901 39.916 27.0939 39.189 26.6093C38.9005 26.4247 38.589 26.2631 38.2889 26.1016V25.9516V16.0625C38.2889 7.96207 31.9888 1.24702 23.9461 0.761837C19.7113 0.496441 15.6839 1.96188 12.5801 4.90429C9.49918 7.80056 7.72224 11.9199 7.72224 16.178V26.1018C7.41069 26.2633 7.0876 26.4133 6.79913 26.6095C6.16449 27.0364 5.55294 27.5556 5.04523 28.1095C4.42213 28.7672 3.91446 29.5057 3.53363 30.2673C2.8413 31.6173 2.49517 33.0712 2.49517 34.5828C2.49517 35.7136 2.70287 36.8329 3.09519 37.8945C1.13362 41.3677 0.0950928 45.2911 0.0950928 49.2834C0.0950928 61.9528 10.3763 72.2687 22.9999 72.2687C35.6236 72.2687 45.9048 61.9528 45.9048 49.2834C45.9048 45.291 44.8663 41.3676 42.9047 37.8945L42.916 37.9058ZM10.4921 16.1899C10.4921 12.6821 11.946 9.31273 14.473 6.9241C17.0115 4.52403 20.3116 3.32399 23.7617 3.53165C30.3503 3.92397 35.508 9.42801 35.508 16.063V18.1054V25.2018C34.781 25.0864 34.0541 25.0402 33.3272 25.0979C31.7925 25.2018 30.3502 25.6749 28.9886 26.4941C28.7924 26.621 28.5732 26.771 28.3424 26.9441C24.9499 26.1248 21.1652 26.1133 17.6802 26.9441C16.2262 25.8479 14.507 25.2132 12.6607 25.0979C12.5915 25.0979 12.4877 25.0864 12.3377 25.0979C11.7146 25.0748 11.103 25.1325 10.4914 25.2248L10.4921 16.1899ZM23.0006 69.5107C11.9004 69.5107 2.86504 60.4414 2.86504 49.2947C2.86504 45.6484 3.84582 42.0714 5.66899 38.9788L5.79592 38.7711C6.03823 38.3903 6.08439 37.9057 5.91131 37.4903L5.819 37.2595C5.44976 36.4056 5.26514 35.5056 5.26514 34.594C5.26514 33.5209 5.50745 32.4939 6.00362 31.5247C6.26902 30.9939 6.63826 30.4631 7.07671 30.0016C7.44596 29.5977 7.88447 29.2285 8.33443 28.9285C8.69214 28.6862 9.08443 28.5016 9.48831 28.34C9.58062 28.3169 9.6614 28.2823 9.74217 28.2477C10.446 27.9938 11.1961 27.8554 11.9691 27.8554H12.3268H12.4884C13.8846 27.9477 15.1884 28.4669 16.227 29.3323L16.4116 29.4939C16.7693 29.817 17.277 29.9324 17.7501 29.7939L17.9347 29.7362C21.1425 28.8939 24.9157 28.9054 28.0195 29.7247L28.2618 29.7939C28.7349 29.9439 29.231 29.8285 29.6003 29.4939L29.7618 29.3439C29.9926 29.1477 30.2465 28.9746 30.4542 28.8362C31.4003 28.2592 32.4388 27.9246 33.5235 27.8554C34.4581 27.7862 35.3927 27.9477 36.2812 28.2593C36.3505 28.2939 36.4197 28.3054 36.5005 28.3285C36.9044 28.49 37.3082 28.6747 37.6775 28.917C38.1852 29.2516 38.5891 29.5978 38.9814 30.0362C39.016 30.0708 39.0621 30.1285 39.1314 30.2208C40.1929 31.4555 40.7468 32.9671 40.7468 34.5941C40.7468 35.5057 40.5622 36.4057 40.1929 37.2711L40.1006 37.4903C39.9275 37.9057 39.9622 38.3904 40.216 38.7711L40.3314 38.9558C42.1776 42.0828 43.1469 45.6598 43.1469 49.2946C43.1469 60.4413 34.1122 69.5106 23.0113 69.5106L23.0006 69.5107Z" fill="white"/>
<path d="M22.9997 35.7937C15.9148 35.7937 10.1456 41.5746 10.1456 48.6714C10.1456 55.7682 15.915 61.5602 22.9997 61.5602C30.0844 61.5602 35.8538 55.7792 35.8538 48.6714C35.8538 41.5636 30.0844 35.7937 22.9997 35.7937ZM22.9997 58.7909C17.438 58.7909 12.9149 54.2446 12.9149 48.6714C12.9149 43.0982 17.4382 38.563 22.9997 38.563C28.5612 38.563 33.0844 43.0978 33.0844 48.6714C33.0844 54.245 28.5612 58.7909 22.9997 58.7909Z" fill="white"/>
<path d="M28.5156 43.1675C27.9732 42.6252 27.0963 42.6252 26.554 43.1675L23 46.7214L19.4461 43.1675C18.9037 42.6252 18.0268 42.6252 17.4845 43.1675C16.9422 43.7098 16.9422 44.5868 17.4845 45.1291L21.0385 48.683L17.4845 52.237C16.9422 52.7793 16.9422 53.6563 17.4845 54.1985C17.7499 54.4639 18.1076 54.6024 18.4653 54.6024C18.823 54.6024 19.1692 54.4639 19.4461 54.1985L23 50.6446L26.554 54.1985C26.8194 54.4639 27.1771 54.6024 27.5348 54.6024C27.8925 54.6024 28.2386 54.4639 28.5156 54.1985C29.0579 53.6562 29.0579 52.7792 28.5156 52.237L24.9616 48.683L28.5156 45.1291C29.0579 44.5867 29.0579 43.7098 28.5156 43.1675Z" fill="white"/>
</svg>
