<svg width="20" height="20" viewBox="0 0 20 20" fill="none" xmlns="http://www.w3.org/2000/svg">
<path d="M12.8585 15.0835C14.7217 14.8629 16.5523 14.4232 18.3125 13.7735C16.8218 12.1223 15.9982 9.97596 16.0015 7.75146V7.00146C16.0015 5.41017 15.3693 3.88404 14.2441 2.75882C13.1189 1.63361 11.5928 1.00146 10.0015 1.00146C8.41015 1.00146 6.88403 1.63361 5.75881 2.75882C4.63359 3.88404 4.00145 5.41017 4.00145 7.00146V7.75146C4.00447 9.97609 3.18044 12.1224 1.68945 13.7735C3.42245 14.4135 5.24945 14.8585 7.14445 15.0835M12.8585 15.0835C10.9604 15.3086 9.04247 15.3086 7.14445 15.0835M12.8585 15.0835C13.0026 15.5333 13.0384 16.0109 12.963 16.4772C12.8877 16.9435 12.7033 17.3855 12.4248 17.767C12.1464 18.1486 11.7818 18.4591 11.3606 18.6731C10.9395 18.8871 10.4738 18.9986 10.0015 18.9986C9.52908 18.9986 9.06338 18.8871 8.64226 18.6731C8.22115 18.4591 7.85652 18.1486 7.57807 17.767C7.29962 17.3855 7.11522 16.9435 7.03987 16.4772C6.96452 16.0109 7.00035 15.5333 7.14445 15.0835" stroke="black" stroke-width="1.5" stroke-linecap="round" stroke-linejoin="round"/>
</svg>
