<svg width="20" height="20" viewBox="0 0 20 20" fill="none" xmlns="http://www.w3.org/2000/svg">
<path d="M15.9474 10.0245C15.954 8.45508 15.3359 6.94794 14.2309 5.8344C13.1259 4.72085 11.6235 4.0914 10.0551 4.08574C8.48571 4.08009 6.97953 4.69821 5.866 5.80324L5.86597 5.80327C4.75243 6.90923 4.12392 8.41162 4.1192 9.98101C4.11449 11.5493 4.73259 13.0565 5.83861 14.1691C6.94456 15.2817 8.4469 15.9093 10.0162 15.914M15.9474 10.0245L15.8474 10.024L15.9474 10.0242C15.9474 10.0243 15.9474 10.0244 15.9474 10.0245ZM15.9474 10.0245C15.9445 11.5928 15.3179 13.0952 14.2044 14.2002C13.0917 15.3052 11.5846 15.9224 10.0162 15.914M10.0162 15.914C10.0162 15.914 10.0161 15.914 10.0161 15.914L10.0166 15.814L10.0163 15.914C10.0163 15.914 10.0162 15.914 10.0162 15.914ZM12.2876 10.0254C12.2983 9.10725 11.7547 8.27448 10.9104 7.91442L10.9103 7.91438C10.0659 7.55524 9.08852 7.74157 8.4353 8.38598C7.78104 9.02955 7.58112 10.0051 7.92859 10.8544L8.02114 10.8165L7.92859 10.8544C8.27607 11.7036 9.10104 12.2588 10.0182 12.2617M12.2876 10.0254L12.1876 10.0242M12.2876 10.0254C12.2876 10.0253 12.2876 10.0253 12.2876 10.0252L12.1876 10.0242M12.2876 10.0254C12.2749 11.2678 11.2615 12.2666 10.0182 12.2617M12.1876 10.0242C12.1978 9.14659 11.6783 8.35059 10.8711 8.0064L10.0186 12.1617M12.1876 10.0242C12.1755 11.2117 11.207 12.1664 10.0186 12.1617M10.0182 12.2617L10.0186 12.1617M10.0182 12.2617C10.0182 12.2617 10.0182 12.2617 10.0182 12.2617L10.0186 12.1617M10 19.6H10.0002C12.5446 19.5945 14.983 18.581 16.782 16.782C18.581 14.983 19.5944 12.5446 19.6 10.0002V10C19.6 7.45383 18.5884 5.01253 16.7884 3.21162L16.7884 3.21158C14.9874 1.41156 12.5462 0.4 10 0.4C7.45383 0.4 5.01253 1.41161 3.21162 3.21158L3.21158 3.21162C1.41156 5.01256 0.4 7.45383 0.4 10C0.4 12.5462 1.41161 14.9875 3.21158 16.7884L3.21162 16.7884C5.01256 18.5884 7.45383 19.6 10 19.6ZM16.1522 3.89731L16.1522 3.89735C17.7718 5.52883 18.6761 7.7381 18.6661 10.0373C18.6504 12.3313 17.7289 14.5262 16.101 16.1423L16.1009 16.1423C14.4741 17.7592 12.2729 18.6663 9.97911 18.6664C7.67979 18.6607 5.4768 17.7418 3.8553 16.1111C2.23382 14.4803 1.32683 12.2728 1.33411 9.97348C1.34139 7.67418 2.26217 5.47213 3.89288 3.85152C5.52443 2.23084 7.73286 1.32566 10.0322 1.33387C12.3315 1.34209 14.5334 2.26479 16.1522 3.89731ZM10.2097 14.9989L10.2097 14.991L10.108 14.9924C8.79825 15.0106 7.53399 14.5148 6.58626 13.6108L6.58622 13.6107C5.63761 12.7066 5.08279 11.4671 5.03911 10.1582C4.99917 8.83138 5.49028 7.54269 6.40337 6.57868L6.4034 6.57865C7.31658 5.61367 8.57515 5.05339 9.90316 5.01975C11.2311 4.9861 12.5172 5.4836 13.4767 6.40039L13.5458 6.32808L13.4767 6.40039C14.4371 7.31798 14.992 8.5804 15.0192 9.90831C15.0465 11.2352 14.5436 12.5194 13.6223 13.4753C12.7236 14.4068 11.5002 14.9522 10.2097 14.9989ZM11.363 9.99268C11.363 10.7288 10.7667 11.3251 10.0306 11.3251C9.29547 11.3251 8.69914 10.7288 8.69914 9.99268C8.69914 9.25749 9.29543 8.6612 10.0306 8.6612C10.7668 8.6612 11.363 9.25753 11.363 9.99268Z" fill="#81868F" stroke="#81868F" stroke-width="0.2"/>
</svg>
