<svg width="24" height="25" viewBox="0 0 24 25" fill="none" xmlns="http://www.w3.org/2000/svg">
<path d="M3.375 20H20.625M3.375 20C3.07663 20 2.79048 19.8815 2.5795 19.6705C2.36853 19.4595 2.25 19.1734 2.25 18.875M3.375 20H10.875C11.496 20 12 19.496 12 18.875M20.625 20C21.246 20 21.75 19.496 21.75 18.875M20.625 20H13.125C12.8266 20 12.5405 19.8815 12.3295 19.6705C12.1185 19.4595 12 19.1734 12 18.875M2.25 18.875V6.125M2.25 18.875V17.375C2.25 16.754 2.754 16.25 3.375 16.25M12 18.875V17.375M2.25 6.125C2.25 5.504 2.754 5 3.375 5H20.625C21.246 5 21.75 5.504 21.75 6.125M2.25 6.125V7.625C2.25 8.246 2.754 8.75 3.375 8.75M3.375 16.25C2.754 16.25 2.25 15.746 2.25 15.125V13.625C2.25 13.004 2.754 12.5 3.375 12.5M3.375 16.25H10.875M21.75 18.875V6.125M21.75 18.875V17.375C21.75 16.754 21.246 16.25 20.625 16.25M21.75 6.125V7.625C21.75 8.246 21.246 8.75 20.625 8.75M20.625 16.25C21.246 16.25 21.75 15.746 21.75 15.125V13.625C21.75 13.004 21.246 12.5 20.625 12.5M20.625 16.25H13.125M20.625 8.75H3.375M20.625 8.75H13.125C12.504 8.75 12 9.254 12 9.875M20.625 8.75C21.246 8.75 21.75 9.254 21.75 9.875V11.375C21.75 11.996 21.246 12.5 20.625 12.5M3.375 8.75H10.875C11.496 8.75 12 9.254 12 9.875M3.375 8.75C2.754 8.75 2.25 9.254 2.25 9.875V11.375C2.25 11.996 2.754 12.5 3.375 12.5M12 9.875V11.375M3.375 12.5H10.875M20.625 12.5H13.125M10.875 12.5C11.496 12.5 12 11.996 12 11.375M10.875 12.5C11.496 12.5 12 13.004 12 13.625M12 11.375C12 11.996 12.504 12.5 13.125 12.5M13.125 12.5C12.504 12.5 12 13.004 12 13.625M12 13.625V15.125M10.875 16.25C11.496 16.25 12 15.746 12 15.125M10.875 16.25C11.496 16.25 12 16.754 12 17.375M12 15.125C12 15.746 12.504 16.25 13.125 16.25M13.125 16.25C12.504 16.25 12 16.754 12 17.375" stroke="#3455DB" stroke-width="1.5" stroke-linecap="round" stroke-linejoin="round"/>
</svg>
