<svg width="20" height="20" viewBox="0 0 20 20" fill="none" xmlns="http://www.w3.org/2000/svg">
<path d="M12.8575 15.0835C14.7207 14.8629 16.5513 14.4232 18.3115 13.7735C16.8209 12.1223 15.9972 9.97596 16.0005 7.75146V7.00146C16.0005 5.41017 15.3683 3.88404 14.2431 2.75882C13.1179 1.63361 11.5918 1.00146 10.0005 1.00146C8.40918 1.00146 6.88305 1.63361 5.75784 2.75882C4.63262 3.88404 4.00048 5.41017 4.00048 7.00146V7.75146C4.00349 9.97609 3.17946 12.1224 1.68848 13.7735C3.42148 14.4135 5.24848 14.8585 7.14348 15.0835M12.8575 15.0835C10.9595 15.3086 9.04149 15.3086 7.14348 15.0835M12.8575 15.0835C13.0016 15.5333 13.0374 16.0109 12.9621 16.4772C12.8867 16.9435 12.7023 17.3855 12.4239 17.767C12.1454 18.1486 11.7808 18.4591 11.3597 18.6731C10.9386 18.8871 10.4729 18.9986 10.0005 18.9986C9.5281 18.9986 9.0624 18.8871 8.64128 18.6731C8.22017 18.4591 7.85555 18.1486 7.5771 17.767C7.29865 17.3855 7.11424 16.9435 7.03889 16.4772C6.96354 16.0109 6.99937 15.5333 7.14348 15.0835" stroke="#81868F" stroke-width="1.5" stroke-linecap="round" stroke-linejoin="round"/>
</svg>
