<svg width="22" height="18" viewBox="0 0 22 18" fill="none" xmlns="http://www.w3.org/2000/svg">
<path d="M2.375 16.5H19.625M2.375 16.5C2.07663 16.5 1.79048 16.3815 1.5795 16.1705C1.36853 15.9595 1.25 15.6734 1.25 15.375M2.375 16.5H9.875C10.496 16.5 11 15.996 11 15.375M19.625 16.5C20.246 16.5 20.75 15.996 20.75 15.375M19.625 16.5H12.125C11.8266 16.5 11.5405 16.3815 11.3295 16.1705C11.1185 15.9595 11 15.6734 11 15.375M1.25 15.375V2.625M1.25 15.375V13.875C1.25 13.254 1.754 12.75 2.375 12.75M11 15.375V13.875M1.25 2.625C1.25 2.004 1.754 1.5 2.375 1.5H19.625C20.246 1.5 20.75 2.004 20.75 2.625M1.25 2.625V4.125C1.25 4.746 1.754 5.25 2.375 5.25M2.375 12.75C1.754 12.75 1.25 12.246 1.25 11.625V10.125C1.25 9.504 1.754 9 2.375 9M2.375 12.75H9.875M20.75 15.375V2.625M20.75 15.375V13.875C20.75 13.254 20.246 12.75 19.625 12.75M20.75 2.625V4.125C20.75 4.746 20.246 5.25 19.625 5.25M19.625 12.75C20.246 12.75 20.75 12.246 20.75 11.625V10.125C20.75 9.504 20.246 9 19.625 9M19.625 12.75H12.125M19.625 5.25H2.375M19.625 5.25H12.125C11.504 5.25 11 5.754 11 6.375M19.625 5.25C20.246 5.25 20.75 5.754 20.75 6.375V7.875C20.75 8.496 20.246 9 19.625 9M2.375 5.25H9.875C10.496 5.25 11 5.754 11 6.375M2.375 5.25C1.754 5.25 1.25 5.754 1.25 6.375V7.875C1.25 8.496 1.754 9 2.375 9M11 6.375V7.875M2.375 9H9.875M19.625 9H12.125M9.875 9C10.496 9 11 8.496 11 7.875M9.875 9C10.496 9 11 9.504 11 10.125M11 7.875C11 8.496 11.504 9 12.125 9M12.125 9C11.504 9 11 9.504 11 10.125M11 10.125V11.625M9.875 12.75C10.496 12.75 11 12.246 11 11.625M9.875 12.75C10.496 12.75 11 13.254 11 13.875M11 11.625C11 12.246 11.504 12.75 12.125 12.75M12.125 12.75C11.504 12.75 11 13.254 11 13.875" stroke="#81868F" stroke-width="1.5" stroke-linecap="round" stroke-linejoin="round"/>
</svg>
