<svg width="20" height="20" viewBox="0 0 20 20" fill="none" xmlns="http://www.w3.org/2000/svg">
<path d="M12.8575 15.083C14.7207 14.8624 16.5513 14.4227 18.3115 13.773C16.8209 12.1218 15.9972 9.97547 16.0005 7.75098V7.00098C16.0005 5.40968 15.3683 3.88355 14.2431 2.75834C13.1179 1.63312 11.5918 1.00098 10.0005 1.00098C8.40918 1.00098 6.88305 1.63312 5.75784 2.75834C4.63262 3.88355 4.00048 5.40968 4.00048 7.00098V7.75098C4.00349 9.97561 3.17946 12.1219 1.68848 13.773C3.42148 14.413 5.24848 14.858 7.14348 15.083M12.8575 15.083C10.9595 15.3081 9.04149 15.3081 7.14348 15.083M12.8575 15.083C13.0016 15.5328 13.0374 16.0104 12.9621 16.4767C12.8867 16.943 12.7023 17.385 12.4239 17.7666C12.1454 18.1481 11.7808 18.4586 11.3597 18.6726C10.9386 18.8866 10.4729 18.9982 10.0005 18.9982C9.5281 18.9982 9.0624 18.8866 8.64128 18.6726C8.22017 18.4586 7.85555 18.1481 7.5771 17.7666C7.29865 17.385 7.11424 16.943 7.03889 16.4767C6.96354 16.0104 6.99937 15.5328 7.14348 15.083" stroke="black" stroke-width="1.5" stroke-linecap="round" stroke-linejoin="round"/>
</svg>
