<svg width="15" height="15" viewBox="0 0 15 15" fill="none" xmlns="http://www.w3.org/2000/svg">
    <path d="M1.79883 2.35352V13.1465H12.5918" stroke="#ffffff" stroke-width="1.19922" stroke-linecap="round" stroke-linejoin="round"/>
    <path d="M5.99609 6.55078H4.79687C4.46572 6.55078 4.19727 6.81924 4.19727 7.15039V10.1484C4.19727 10.4796 4.46572 10.748 4.79687 10.748H5.99609C6.32725 10.748 6.5957 10.4796 6.5957 10.1484V7.15039C6.5957 6.81924 6.32725 6.55078 5.99609 6.55078Z" stroke="#ffffff" stroke-width="1.19922" stroke-linecap="round" stroke-linejoin="round"/>
    <path d="M10.793 3.55273H9.59375C9.26259 3.55273 8.99414 3.82119 8.99414 4.15234V10.1484C8.99414 10.4796 9.26259 10.748 9.59375 10.748H10.793C11.1241 10.748 11.3926 10.4796 11.3926 10.1484V4.15234C11.3926 3.82119 11.1241 3.55273 10.793 3.55273Z" stroke="#ffffff" stroke-width="1.19922" stroke-linecap="round" stroke-linejoin="round"/>
</svg>
